<svg width="23" height="17" viewBox="0 0 23 17" fill="none" xmlns="http://www.w3.org/2000/svg">
<path d="M4.86848 0.32842C4.97267 0.4325 5.05533 0.556097 5.11173 0.692145C5.16813 0.828192 5.19716 0.974022 5.19716 1.1213C5.19716 1.26857 5.16813 1.4144 5.11173 1.55045C5.05533 1.68649 4.97267 1.81009 4.86848 1.91417C3.18684 3.59609 2.24213 5.8771 2.24213 8.25549C2.24213 10.6339 3.18684 12.9149 4.86848 14.5968C4.97551 14.7002 5.06089 14.8239 5.11962 14.9606C5.17836 15.0973 5.20927 15.2444 5.21056 15.3932C5.21186 15.542 5.1835 15.6895 5.12715 15.8273C5.07081 15.965 4.98759 16.0901 4.88237 16.1953C4.77715 16.3006 4.65202 16.3838 4.5143 16.4401C4.37657 16.4965 4.229 16.5248 4.0802 16.5235C3.9314 16.5222 3.78434 16.4913 3.64761 16.4326C3.51089 16.3739 3.38723 16.2885 3.28385 16.1814C-1.09462 11.8041 -1.09462 4.70576 3.28385 0.32842C3.49401 0.118327 3.779 0.000302458 4.07616 0.000302458C4.37333 0.000302458 4.65832 0.118327 4.86848 0.32842ZM19.1369 0.32842C23.5142 4.70689 23.5142 11.8041 19.1369 16.1814C18.9267 16.3917 18.6417 16.5099 18.3444 16.51C18.0471 16.5101 17.762 16.3921 17.5517 16.182C17.3414 15.9719 17.2232 15.6868 17.2231 15.3895C17.223 15.0922 17.341 14.8071 17.5511 14.5968C19.2328 12.9149 20.1775 10.6339 20.1775 8.25549C20.1775 5.8771 19.2328 3.59609 17.5511 1.91417C17.3408 1.70389 17.2227 1.41868 17.2227 1.1213C17.2227 0.82391 17.3408 0.538704 17.5511 0.32842C17.7614 0.118137 18.0466 5.86219e-09 18.344 0C18.6414 -5.86219e-09 18.9266 0.118137 19.1369 0.32842ZM8.19351 3.54923C8.40361 3.75939 8.52163 4.04438 8.52163 4.34155C8.52163 4.63871 8.40361 4.9237 8.19351 5.13386C7.78553 5.5418 7.46191 6.0261 7.24111 6.55912C7.02031 7.09213 6.90666 7.66342 6.90666 8.24036C6.90666 8.8173 7.02031 9.38859 7.24111 9.92161C7.46191 10.4546 7.78553 10.9389 8.19351 11.3469C8.29756 11.451 8.38008 11.5746 8.43636 11.7106C8.49265 11.8466 8.52159 11.9924 8.52154 12.1396C8.52148 12.2868 8.49244 12.4325 8.43606 12.5685C8.37968 12.7045 8.29707 12.828 8.19295 12.9321C8.08883 13.0361 7.96523 13.1186 7.82922 13.1749C7.69321 13.2312 7.54744 13.2601 7.40024 13.2601C7.25304 13.26 7.1073 13.231 6.97132 13.1746C6.83535 13.1182 6.71181 13.0356 6.60776 12.9315C5.36362 11.6873 4.66468 9.99987 4.66468 8.24036C4.66468 6.48086 5.36362 4.79341 6.60776 3.54923C6.71184 3.44503 6.83544 3.36238 6.97149 3.30598C7.10753 3.24958 7.25336 3.22055 7.40064 3.22055C7.54791 3.22055 7.69374 3.24958 7.82979 3.30598C7.96584 3.36238 8.08943 3.44503 8.19351 3.54923ZM15.9911 3.54923C17.2353 4.79341 17.9342 6.48086 17.9342 8.24036C17.9342 9.99987 17.2353 11.6873 15.9911 12.9315C15.7798 13.1356 15.4967 13.2486 15.2029 13.246C14.909 13.2435 14.628 13.1256 14.4202 12.9178C14.2124 12.7101 14.0945 12.429 14.092 12.1351C14.0894 11.8413 14.2024 11.5582 14.4065 11.3469C14.8145 10.9389 15.1381 10.4546 15.3589 9.92161C15.5797 9.38859 15.6934 8.8173 15.6934 8.24036C15.6934 7.66342 15.5797 7.09213 15.3589 6.55912C15.1381 6.0261 14.8145 5.5418 14.4065 5.13386C14.2024 4.9225 14.0894 4.63942 14.092 4.34558C14.0945 4.05174 14.2124 3.77066 14.4202 3.56288C14.628 3.3551 14.909 3.23724 15.2029 3.23469C15.4967 3.23213 15.7798 3.34509 15.9911 3.54923ZM11.3 6.65349C11.7458 6.65349 12.1734 6.8306 12.4887 7.14585C12.8039 7.4611 12.981 7.88867 12.981 8.3345C12.981 8.78033 12.8039 9.2079 12.4887 9.52315C12.1734 9.8384 11.7458 10.0155 11.3 10.0155C10.8542 10.0155 10.4266 9.8384 10.1114 9.52315C9.79611 9.2079 9.61901 8.78033 9.61901 8.3345C9.61901 7.88867 9.79611 7.4611 10.1114 7.14585C10.4266 6.8306 10.8542 6.65349 11.3 6.65349Z" fill="#C30E0E"/>
</svg>
